# xmcd CD database file
#
# Track frame offsets:
#	183
#	3543
#	24873
#	43260
#	61310
#	76220
#	94610
#	105378
#	127473
#	134553
#	138905
#	155923
#	171698
#	186543
#	199200
#	209090
#	213290
#	244740
#	265893
#
# Disc length: 3636 seconds
#
# Revision: 0
# Processed by: cddbd v1.5.1PL0 Copyright (c) Steve Scherf et al.
# Submitted via: CDex 1.51
#
DISCID=270e3213
DTITLE=Count Basie - (New York 1960-61)
DYEAR=1990
DGENRE=Jazz
TTITLE0=Theme (One O'Clock Jump)
TTITLE1=Blues in Frankie's Flat
TTITLE2=Whirly-Biird
TTITLE3=I need to be Beedìd with
TTITLE4=Too Close for Confort
TTITLE5=Chains of Love
TTITLE6=Roll'em Pete
TTITLE7=Shiny Stockings
TTITLE8=Theme (One o'Clock Jump)
TTITLE9=You're driving Me Crazy
TTITLE10=Moten Swing
TTITLE11=Counter Block
TTITLE12=In the Evening when the Sun goes Down
TTITLE13=You Stepped Out of a Dream 
TTITLE14=Snake, Rattle and Roll
TTITLE15=Theme (One O' Clock Jump)
TTITLE16=The Deacon
TTITLE17=Unbeknownest
TTITLE18=Theme (One O'Colck Jump
EXTD=YEAR: 1990
EXTT0=
EXTT1=
EXTT2=
EXTT3=
EXTT4=
EXTT5=
EXTT6=
EXTT7=
EXTT8=
EXTT9=
EXTT10=
EXTT11=
EXTT12=
EXTT13=
EXTT14=
EXTT15=
EXTT16=
EXTT17=
EXTT18=
PLAYORDER=
